<svg version="1.1" id="Layer_1" xmlns="http://www.w3.org/2000/svg" xmlns:xlink="http://www.w3.org/1999/xlink" x="0px" y="0px"
	 width="368.34px" height="143.34px" viewBox="0 0 368.34 143.34" style="enable-background:new 0 0 368.34 143.34;"
	 xml:space="preserve">

<defs>

	<style>
		
		#Layer_2 {
			stroke-dasharray: 3000;
			stroke-dashoffset: 0;
			-webkit-animation: dash 4s linear forwards;
			-o-animation: dash 4s linear forwards;
			-moz-animation: dash 4s linear forwards;
			animation: dash 4s linear forwards;
		}

		@-webkit-keyframes dash {
			from {
				stroke-dashoffset: 3000;
			}
			to {
				stroke-dashoffset: 0;
			}
		}

	</style>

</defs>

<g id="Layer_2">
	<g>
		<path d="M3.419,36.125c1.413,1.096,3.183,1.533,4.89,1.851c0.875,0.093,1.735,0.235,2.615,0.229l1.31,0.041l1.312-0.078l1.31-0.08
			l1.302-0.188c0.865-0.123,1.733-0.23,2.585-0.449c0.855-0.198,1.712-0.368,2.56-0.586l2.522-0.752
			c1.685-0.468,3.305-1.183,4.958-1.76c1.627-0.65,3.232-1.371,4.85-2.051c1.59-0.747,3.16-1.545,4.74-2.312
			c1.575-0.777,3.09-1.686,4.64-2.512c0.805-0.428,1.475-0.823,2.387-1.278l2.353-1.212l4.685-2.485
			c3.111-1.678,6.191-3.407,9.248-5.16c3.045-1.768,6.059-3.593,8.934-5.548c1.432-0.98,2.832-2.002,4.102-3.082
			c0.633-0.541,1.229-1.101,1.721-1.652l0.335-0.408c0.097-0.13,0.152-0.245,0.235-0.365c0.111-0.14,0.052-0.162,0.111-0.237
			c0.038-0.052,0.006-0.027-0.002,0.003c-0.008,0.025,0.002,0.053,0.025,0.074l0.604,1.148c0.138,0.112,0.085,0.074,0.101,0.084
			c0.018,0-0.03-0.004-0.041-0.012c-0.024-0.022-0.1-0.027-0.156-0.045c-0.131-0.021-0.288-0.053-0.483-0.025
			c-0.188,0.01-0.388,0.03-0.612,0.107c-0.213,0.04-0.442,0.12-0.678,0.235c-0.465,0.152-0.938,0.492-1.41,0.745
			c-0.457,0.359-0.938,0.657-1.383,1.055c-1.822,1.522-3.449,3.457-4.967,5.457c-0.76,1.006-1.51,2.023-2.2,3.096l-1.069,1.58
			l-1.016,1.627l-1.013,1.631l-1.022,1.678c-0.652,1.087-1.295,2.195-1.922,3.327c-1.291,2.229-2.461,4.535-3.686,6.808
			c-1.145,2.317-2.335,4.613-3.46,6.939c-1.095,2.344-2.243,4.663-3.3,7.023l-3.11,7.112l-2.908,7.203
			c-0.982,2.388-1.925,4.847-2.88,7.257c-0.945,2.426-1.905,4.848-2.908,7.258l-2.93,7.229c-0.5,1.199-0.93,2.416-1.368,3.627
			c-0.417,1.221-0.955,2.41-1.287,3.65l-1.12,3.697l-0.853,3.777c-0.312,1.256-0.51,2.537-0.7,3.818l-0.598,3.85l-0.925,7.756
			l0.275-7.818l0.35-3.904c0.107-1.303,0.223-2.609,0.458-3.9l0.62-3.896l0.897-3.842c0.265-1.297,0.715-2.525,1.078-3.791
			c0.387-1.254,0.768-2.518,1.215-3.738c1.695-4.961,3.493-9.811,5.225-14.729c0.882-2.465,1.72-4.897,2.638-7.355
			c0.905-2.452,1.792-4.92,2.73-7.362l3.002-7.261c1.02-2.409,2.135-4.785,3.198-7.18c1.08-2.39,2.288-4.717,3.43-7.078
			c1.23-2.316,2.4-4.662,3.703-6.952c0.625-1.149,1.282-2.298,1.963-3.447l0.997-1.663l1.037-1.691
			c0.678-1.136,1.393-2.256,2.155-3.348c0.728-1.111,1.527-2.188,2.346-3.25c1.64-2.126,3.39-4.205,5.577-6.019
			c0.53-0.462,1.155-0.867,1.729-1.298c0.668-0.367,1.271-0.781,2.043-1.06c0.359-0.159,0.742-0.298,1.17-0.388
			c0.4-0.117,0.846-0.18,1.311-0.202c0.449-0.038,0.952,0.007,1.455,0.115c0.254,0.062,0.502,0.12,0.771,0.245
			c0.139,0.062,0.25,0.1,0.402,0.192c0.156,0.095,0.248,0.13,0.511,0.347l0.593,0.493l0.01,0.655
			c0.008,0.452-0.018,1.067-0.155,1.387c-0.125,0.326-0.267,0.756-0.43,0.973c-0.157,0.253-0.323,0.525-0.493,0.75l-0.512,0.618
			c-0.69,0.772-1.405,1.415-2.135,2.01c-1.458,1.19-2.953,2.229-4.469,3.226c-3.032,1.977-6.132,3.768-9.26,5.5
			c-3.125,1.732-6.3,3.359-9.487,4.947l-4.803,2.346l-2.417,1.145c-0.688,0.31-1.57,0.777-2.345,1.157
			c-1.61,0.782-3.19,1.62-4.83,2.343c-1.647,0.71-3.28,1.445-4.935,2.133c-1.685,0.619-3.35,1.282-5.05,1.857
			c-1.732,0.484-3.417,1.1-5.18,1.473l-2.625,0.604c-0.885,0.165-1.775,0.288-2.663,0.433c-0.882,0.165-1.782,0.223-2.68,0.29
			l-1.345,0.104h-1.353l-1.348-0.007l-1.345-0.128c-0.897-0.045-1.78-0.265-2.658-0.442C6.497,37.948,4.739,37.343,3.419,36.125z"/>
	</g>
	<g>
		<path d="M60.658,57.792c-2.014,4.636-3.943,9.299-5.715,14c-0.883,2.354-1.718,4.723-2.393,7.111
			c-0.335,1.191-0.65,2.387-0.833,3.562c-0.088,0.58-0.143,1.164-0.118,1.666c0.015,0.24,0.06,0.469,0.11,0.576
			c0.065,0.127,0.038,0.016-0.057-0.018l0.552,0.412c-0.047-0.074,0.123,0.092,0.23,0.115c0.123,0.055,0.268,0.096,0.43,0.115
			c0.325,0.029,0.7,0.016,1.103-0.109c0.197-0.043,0.4-0.119,0.604-0.209c0.205-0.072,0.41-0.166,0.615-0.285
			c0.412-0.193,0.812-0.475,1.218-0.725c0.798-0.564,1.567-1.197,2.308-1.889c0.353-0.348,0.755-0.721,1.07-1.047l1.145-1.174
			c0.768-0.768,1.558-1.514,2.365-2.242c0.393-0.375,0.822-0.719,1.234-1.076c0.426-0.348,0.82-0.723,1.273-1.049l1.327-1
			c0.428-0.348,0.944-0.619,1.42-0.924c0.5-0.289,0.935-0.629,1.513-0.854l1.657-0.732l-0.95,0.805
			c0.37-0.719,0.732-1.357,1.123-2.018c0.387-0.656,0.79-1.301,1.213-1.933c0.842-1.275,1.76-2.511,2.797-3.692
			c1.051-1.17,2.205-2.311,3.725-3.221c0.764-0.445,1.631-0.832,2.641-1.008c0.508-0.082,1.035-0.107,1.572-0.06
			c0.541,0.056,1.062,0.19,1.562,0.38l-1.372,3.353c0.101,0.042-0.188-0.034-0.333-0.03c-0.185-0.004-0.377-0.01-0.587,0.03
			c-0.41,0.05-0.845,0.171-1.278,0.365c-0.864,0.37-1.725,0.973-2.507,1.72c-0.798,0.723-1.513,1.604-2.195,2.508l-0.979,1.418
			c-0.309,0.492-0.588,1.01-0.885,1.51c-0.615,0.99-1.086,2.092-1.633,3.141c-0.53,1.057-0.953,2.189-1.436,3.279
			c-0.47,1.098-0.84,2.254-1.265,3.381l-0.31,0.85l-0.078,0.209l-0.02,0.053c-0.008,0.033,0.064-0.221,0.032-0.107l-0.003,0.016
			v0.01l-0.008,0.039c-0.015,0.072-0.029,0.16-0.029,0.195c-0.008,0.045,0.012,0.053-0.03-0.129
			c-0.015-0.061-0.032-0.102-0.065-0.168c-0.045-0.107-0.107-0.211-0.185-0.297c-0.165-0.236-0.538-0.445-0.785-0.504
			c-0.593-0.094-0.652,0.025-0.69,0.016c-0.021,0.01,0.043-0.02,0.104-0.059c0.297-0.191,0.727-0.574,1.115-0.965
			c0.396-0.389,0.795-0.818,1.188-1.262c0.785-0.877,1.547-1.812,2.303-2.758c1.52-1.883,2.994-3.824,4.452-5.789
			c2.907-3.934,5.705-7.971,8.535-11.987l6.298-8.935l-3.633,10.25c-1.42,4.011-2.695,8.118-3.818,12.228
			c-0.277,1.025-0.545,2.057-0.784,3.09c-0.247,1.035-0.466,2.07-0.647,3.105c-0.11,0.52-0.158,1.035-0.238,1.553
			c-0.087,0.518-0.122,1.027-0.154,1.537c-0.058,0.518-0.045,1.01-0.023,1.496c-0.024,0.521,0.136,0.885,0.195,1.332l0.03,0.082
			c0.04,0.152,0.215,0.395,0.345,0.471c0.093,0.012,0.155,0.086,0.288,0.062c0.058-0.004,0.112,0.014,0.18,0.01l0.223-0.061
			l0.228-0.053l0.242-0.125c0.16-0.09,0.328-0.146,0.488-0.258c0.312-0.242,0.649-0.438,0.949-0.717l0.91-0.836l0.853-0.922
			c0.583-0.605,1.088-1.301,1.638-1.947c0.525-0.67,1.018-1.369,1.53-2.055s0.962-1.416,1.458-2.121
			c0.992-1.402,1.872-2.879,2.812-4.324c-0.791,1.527-1.516,3.098-2.368,4.6c-0.417,0.758-0.823,1.52-1.277,2.258
			c-0.458,0.734-0.896,1.482-1.372,2.211c-0.508,0.709-0.958,1.453-1.514,2.137l-0.827,1.035l-0.927,0.977
			c-0.309,0.328-0.701,0.605-1.051,0.908c-0.186,0.148-0.418,0.26-0.625,0.391l-0.324,0.184l-0.391,0.139l-0.397,0.123
			c-0.143,0.029-0.308,0.029-0.463,0.033c-0.308,0.041-0.645-0.066-0.968-0.174c-0.637-0.328-1.039-0.791-1.289-1.445l0.029,0.082
			c-0.178-0.6-0.422-1.26-0.435-1.822c-0.073-0.588-0.112-1.174-0.083-1.73c0.003-0.57,0.013-1.137,0.075-1.684
			c0.053-0.553,0.077-1.115,0.163-1.656c0.132-1.094,0.299-2.18,0.494-3.254c0.19-1.078,0.405-2.148,0.633-3.213
			c0.442-2.135,0.995-4.236,1.555-6.336c0.568-2.1,1.166-4.174,1.818-6.27l2.662,1.312c-2.652,4.162-5.42,8.253-8.255,12.313
			c-1.428,2.025-2.878,4.037-4.405,6.023c-0.775,0.984-1.562,1.961-2.408,2.924c-0.42,0.486-0.857,0.965-1.332,1.441
			c-0.48,0.477-0.949,0.943-1.678,1.439c-0.197,0.127-0.402,0.252-0.705,0.385c-0.316,0.1-0.689,0.33-1.582,0.154
			c-0.405-0.068-0.897-0.393-1.17-0.732c-0.117-0.152-0.223-0.322-0.308-0.494c-0.062-0.141-0.098-0.252-0.138-0.389
			c-0.12-0.475-0.107-0.779-0.098-1.045c0.013-0.27,0.051-0.486,0.096-0.715L67,82.1l0.056-0.199l0.021-0.051l0.079-0.223
			l0.315-0.891c0.435-1.178,0.807-2.373,1.297-3.545c0.5-1.162,0.936-2.346,1.496-3.49c0.574-1.143,1.072-2.312,1.77-3.41
			c0.332-0.555,0.645-1.12,0.995-1.665l1.13-1.615c0.803-1.051,1.657-2.083,2.688-3.008c1.005-0.938,2.186-1.787,3.585-2.373
			c0.692-0.297,1.455-0.52,2.265-0.609c0.4-0.058,0.823-0.062,1.25-0.041c0.469,0.049,0.795,0.062,1.479,0.306l-1.375,3.353
			c-0.188-0.064-0.371-0.117-0.562-0.145c-0.195-0.014-0.4-0.01-0.618,0.021c-0.222,0.045-0.452,0.104-0.697,0.195
			c-0.245,0.103-0.493,0.215-0.745,0.363c-1.018,0.566-2.02,1.47-2.939,2.455c-0.924,0.994-1.781,2.098-2.583,3.25
			c-0.403,0.574-0.79,1.164-1.165,1.762c-0.367,0.592-0.742,1.221-1.058,1.797l-0.288,0.525l-0.664,0.281l-1.266,0.533
			c-0.425,0.139-0.848,0.451-1.272,0.684c-0.42,0.26-0.86,0.465-1.265,0.777l-1.25,0.869c-0.423,0.279-0.815,0.623-1.223,0.934
			c-0.402,0.32-0.818,0.623-1.205,0.967c-0.793,0.666-1.575,1.344-2.338,2.051l-1.119,1.064c-0.44,0.424-0.833,0.758-1.25,1.133
			c-0.841,0.729-1.738,1.41-2.703,2.035c-0.508,0.293-0.99,0.6-1.555,0.836c-0.266,0.129-0.548,0.244-0.851,0.336
			c-0.287,0.105-0.59,0.195-0.915,0.25c-0.622,0.148-1.333,0.182-2.052,0.051c-0.363-0.068-0.73-0.186-1.078-0.375
			c-0.368-0.211-0.635-0.365-1.02-0.854l0.552,0.414c-0.702-0.24-1.147-0.908-1.285-1.373c-0.16-0.482-0.183-0.893-0.19-1.279
			c0.007-0.758,0.117-1.434,0.252-2.094c0.28-1.311,0.672-2.539,1.095-3.752c0.87-2.418,1.875-4.75,2.928-7.055
			C55.83,66.675,58.17,62.193,60.658,57.792z"/>
	</g>
	<g>
		<path d="M103.316,56.388c0.039,0.692,0.162,1.385,0.135,2.074c-0.005,0.693-0.022,1.393-0.045,2.094l-0.061,2.111
			c0.006,0.713-0.098,1.406-0.189,2.094c-0.343,2.765-0.73,5.54-1.141,8.313c-0.077,0.699-0.254,1.371-0.395,2.055l-0.468,2.035
			l-0.935,4.076c-0.613,2.727-1.315,5.426-1.971,8.145l-3.334-0.898c0.314-1.4,0.646-2.727,1.037-4.072
			c0.385-1.336,0.797-2.666,1.225-3.992c0.44-1.322,0.893-2.641,1.385-3.947c0.482-1.311,1.021-2.605,1.601-3.887
			c0.565-1.285,1.19-2.552,1.848-3.807c0.305-0.635,0.697-1.24,1.045-1.859c0.348-0.621,0.715-1.23,1.14-1.823
			c0.43-0.585,0.783-1.202,1.277-1.76c0.479-0.562,0.926-1.138,1.431-1.683l1.64-1.561l1.93-1.334l-0.299,0.227
			c0.292-0.26,0.422-0.31,0.667-0.43c0.247-0.082,0.493-0.165,0.765-0.162c0.271,0,0.583,0.037,0.811,0.125
			c0.205,0.087,0.41,0.202,0.595,0.332c0.585,0.488,0.808,0.973,0.95,1.322c0.197,0.41,0.245,0.723,0.335,1.068
			c0.101,0.348,0.138,0.66,0.178,0.973c0.104,0.637,0.145,1.242,0.175,1.844c0.05,0.608,0.05,1.201,0.053,1.796
			c0.039,2.367-0.183,4.685-0.373,6.998c-0.223,2.309-0.542,4.6-0.88,6.885c-0.337,2.285-0.784,4.553-1.226,6.818
			c-0.029-2.312,0.041-4.613,0.028-6.916c0.007-1.146,0.034-2.295,0.027-3.441c-0.018-1.148-0.018-2.291-0.01-3.434
			c-0.03-1.139-0.042-2.279-0.085-3.413c-0.075-1.127-0.086-2.265-0.2-3.375c-0.042-0.557-0.083-1.112-0.17-1.645
			c-0.067-0.545-0.146-1.08-0.268-1.572c-0.053-0.256-0.104-0.508-0.185-0.708c-0.073-0.208-0.139-0.465-0.218-0.562
			c-0.067-0.183-0.163-0.195-0.011-0.077c0.062,0.055,0.146,0.098,0.226,0.111c0.095,0.038,0.257,0.083,0.388,0.062
			c0.13-0.017,0.24-0.017,0.348-0.076c0.117-0.053,0.117-0.041,0.303-0.201l0.024-0.024l-0.325,0.25l-1.4,1.072l-1.277,1.335
			c-0.404,0.478-0.772,1.008-1.16,1.506c-0.402,0.486-0.705,1.084-1.062,1.614c-0.362,0.538-0.695,1.098-1.008,1.681
			c-0.312,0.582-0.664,1.127-0.939,1.735c-0.598,1.182-1.168,2.381-1.686,3.615c-0.277,0.602-0.52,1.23-0.768,1.85
			c-0.242,0.627-0.517,1.234-0.744,1.867c-0.492,1.25-0.947,2.518-1.393,3.789c-0.433,1.277-0.853,2.557-1.245,3.848
			c-0.375,1.289-0.798,2.592-1.138,3.857l-3.335-0.898c0.785-2.643,1.524-5.293,2.351-7.926l1.225-3.955l0.612-1.977
			c0.208-0.66,0.45-1.312,0.598-1.984c0.66-2.667,1.337-5.338,2.062-8.011c0.185-0.67,0.36-1.337,0.47-2.011l0.385-2.024
			l0.406-2.042C103.211,57.778,103.221,57.081,103.316,56.388z"/>
	</g>
	<g>
		<path d="M120.816,59.355c0.205,1.128,0.428,2.271,0.545,3.413c0.145,1.146,0.283,2.295,0.34,3.448
			c0.075,1.152,0.186,2.307,0.18,3.462l0.021,1.738c0,0.58,0.03,1.162-0.003,1.742c-0.037,1.158-0.104,2.32-0.172,3.482
			c-0.053,1.166-0.255,2.32-0.375,3.486l-0.223,1.744c-0.074,0.58-0.242,1.152-0.359,1.729l-0.781,3.461l-3.387-0.795
			c0.154-1.121,0.348-2.172,0.574-3.246c0.223-1.07,0.469-2.131,0.729-3.191c0.518-2.119,1.122-4.225,1.887-6.297
			c0.365-1.035,0.795-2.061,1.23-3.086c0.218-0.509,0.475-1.014,0.715-1.517c0.23-0.507,0.503-1.01,0.787-1.503
			c0.293-0.49,0.551-0.99,0.903-1.457c0.343-0.473,0.64-0.963,1.021-1.415c0.392-0.455,0.774-0.907,1.18-1.348l1.404-1.22
			l-0.307,0.312c0.254-0.308,0.402-0.428,0.68-0.613c0.25-0.162,0.623-0.314,1.025-0.359c0.212-0.016,0.438-0.005,0.645,0.025
			c0.188,0.05,0.375,0.117,0.555,0.199c0.367,0.173,0.5,0.354,0.73,0.561c0.287,0.35,0.508,0.71,0.612,0.99
			c0.147,0.31,0.232,0.587,0.306,0.854c0.18,0.558,0.234,1.048,0.337,1.562c0.058,0.495,0.146,1,0.175,1.487
			c0.088,0.982,0.133,1.943,0.141,2.908l-0.014,1.434l-0.007,0.717c-0.01,0.066,0.021,0.316,0.048,0.506
			c0.133,0.82,0.383,1.656,0.729,2.449c0.183,0.389,0.372,0.787,0.612,1.152c0.215,0.381,0.5,0.719,0.768,1.072
			c0.572,0.674,1.226,1.312,1.98,1.83c0.365,0.279,0.775,0.494,1.168,0.752c0.41,0.221,0.837,0.412,1.265,0.625
			c-0.46-0.102-0.931-0.189-1.396-0.312c-0.445-0.16-0.932-0.266-1.362-0.488c-0.893-0.387-1.735-0.914-2.515-1.547
			c-0.365-0.34-0.748-0.676-1.068-1.064c-0.342-0.373-0.637-0.785-0.924-1.207c-0.57-0.854-0.998-1.791-1.296-2.799
			c-0.069-0.266-0.145-0.477-0.188-0.883l-0.079-0.691l-0.166-1.381c-0.14-0.909-0.247-1.822-0.417-2.702
			c-0.07-0.45-0.185-0.867-0.275-1.3c-0.117-0.395-0.215-0.84-0.364-1.168c-0.065-0.182-0.139-0.348-0.211-0.455
			c-0.069-0.157-0.135-0.18-0.137-0.194c0.042,0.069,0.029,0.04,0.172,0.138c0.068,0.042,0.148,0.062,0.225,0.07
			c0.094,0.029,0.198,0.037,0.296,0.021c0.173-0.01,0.315-0.082,0.37-0.115c0.08-0.062,0.053-0.018,0.157-0.145l-0.308,0.311
			l-0.963,0.944l-0.867,1.115c-0.285,0.38-0.52,0.827-0.782,1.232c-0.272,0.399-0.478,0.868-0.71,1.308
			c-0.238,0.438-0.473,0.88-0.676,1.348c-0.207,0.467-0.43,0.918-0.622,1.393c-0.38,0.951-0.76,1.904-1.087,2.891
			c-0.176,0.482-0.338,0.977-0.485,1.475l-0.47,1.484c-0.311,0.994-0.598,1.998-0.868,3.008c-0.267,1.01-0.521,2.027-0.753,3.047
			l-0.664,3.043l-3.388-0.795l0.905-3.188c0.14-0.537,0.33-1.057,0.43-1.607l0.34-1.637c0.215-1.096,0.516-2.182,0.668-3.293
			c0.164-1.113,0.327-2.229,0.524-3.34c0.107-0.559,0.147-1.121,0.22-1.684l0.197-1.69c0.053-0.564,0.158-1.125,0.201-1.692
			l0.157-1.7c0.112-1.133,0.207-2.27,0.29-3.41C120.669,61.65,120.762,60.507,120.816,59.355z"/>
	</g>
	<g>
		<path d="M155.505,59.355c-0.192-0.17-0.44-0.252-0.678-0.26c-0.243-0.002-0.473,0.068-0.688,0.165
			c-0.427,0.216-0.78,0.567-1.101,0.928c-0.174,0.165-0.307,0.386-0.459,0.573c-0.155,0.189-0.288,0.396-0.418,0.611
			c-0.272,0.41-0.513,0.846-0.742,1.291c-0.242,0.43-0.445,0.893-0.668,1.337c-0.225,0.445-0.415,0.913-0.609,1.372
			c-0.41,0.91-0.73,1.873-1.104,2.799l-0.032,0.066l-2.614,5.694l-2.69,5.629l-0.62,1.293c-0.123,0.408-0.232,0.883-0.272,1.248
			c-0.022,0.18-0.018,0.357-0.008,0.361c0,0,0-0.035-0.007-0.049c-0.016-0.08-0.027-0.104-0.09-0.225
			c-0.101-0.203-0.493-0.549-0.828-0.568c-0.105-0.029-0.228-0.027-0.295-0.016c-0.035-0.004-0.07,0-0.103,0.018
			c0.015-0.023,0.01-0.002,0.08-0.053c0.097-0.055,0.263-0.172,0.42-0.305c0.657-0.529,1.36-1.277,2.027-2.012
			c0.667-0.758,1.33-1.537,1.995-2.32l0.04-0.051l0.085-0.082c0.26-0.262,0.57-0.596,0.85-0.908c0.288-0.316,0.57-0.645,0.848-0.975
			c0.558-0.66,1.09-1.342,1.61-2.031c0.513-0.701,1.013-1.406,1.478-2.131c0.24-0.363,0.471-0.725,0.692-1.092
			c0.223-0.368,0.468-0.726,0.667-1.104c0.434-0.742,0.836-1.497,1.201-2.268c0.202-0.375,0.359-0.77,0.524-1.162
			c0.157-0.39,0.357-0.775,0.482-1.175c0.29-0.792,0.573-1.59,0.771-2.402c0.112-0.403,0.234-0.806,0.305-1.213l0.255-1.225
			l3.425,0.62c-0.649,2.622-1.188,5.322-1.715,7.994c-0.535,2.678-0.945,5.374-1.265,8.061c-0.146,1.342-0.253,2.686-0.261,4.018
			c0.014,0.66,0.023,1.318,0.086,1.961c0.032,0.322,0.098,0.625,0.143,0.943c0.082,0.283,0.145,0.602,0.26,0.861
			c0.207,0.562,0.543,0.912,0.984,1.076c0.455,0.199,1.096-0.012,1.688-0.215l0.883-0.461c0.29-0.172,0.568-0.365,0.853-0.553
			c0.58-0.369,1.091-0.84,1.646-1.26c-0.461,0.516-0.875,1.084-1.383,1.568c-0.252,0.244-0.492,0.506-0.763,0.738l-0.867,0.652
			c-0.643,0.338-1.354,0.768-2.28,0.621c-0.907-0.119-1.652-0.846-2.01-1.533c-0.213-0.348-0.336-0.703-0.492-1.064
			c-0.105-0.357-0.23-0.719-0.315-1.08c-0.167-0.719-0.288-1.432-0.368-2.15c-0.145-1.43-0.18-2.85-0.174-4.264
			c0.014-2.826,0.302-5.618,0.614-8.395c0.155-1.39,0.375-2.768,0.598-4.147c0.228-1.38,0.468-2.745,0.742-4.138l3.425,0.62
			c-0.17,0.952-0.254,1.935-0.527,2.862c-0.217,0.947-0.521,1.857-0.838,2.766c-0.142,0.463-0.35,0.89-0.521,1.335
			c-0.183,0.444-0.357,0.888-0.572,1.312c-0.398,0.868-0.833,1.71-1.295,2.535c-0.219,0.426-0.476,0.818-0.719,1.227
			c-0.236,0.406-0.489,0.805-0.76,1.191c-0.52,0.787-1.077,1.545-1.645,2.295c-0.572,0.746-1.162,1.475-1.783,2.188
			c-0.307,0.354-0.622,0.703-0.945,1.053c-0.329,0.355-0.639,0.678-1.021,1.053l0.125-0.135c-0.703,0.812-1.413,1.617-2.186,2.396
			c-0.779,0.781-1.547,1.551-2.561,2.299c-0.257,0.188-0.521,0.375-0.889,0.562c-0.153,0.088-0.413,0.189-0.636,0.268
			c-0.157,0.045-0.322,0.076-0.485,0.104c-0.197,0.023-0.455,0.023-0.689-0.014c-0.585-0.08-1.223-0.57-1.445-1.01
			c-0.137-0.232-0.18-0.385-0.245-0.584c-0.032-0.145-0.065-0.307-0.079-0.439c-0.051-0.516,0-0.869,0.052-1.207
			c0.112-0.672,0.274-1.215,0.479-1.809l0.021-0.057l0.045-0.115l0.005-0.01l0.013-0.025l0.05-0.082l0.1-0.176l0.201-0.348
			l0.396-0.691l3.17-5.527l3.24-5.468l-0.032,0.065c0.495-0.913,0.96-1.828,1.508-2.719c0.265-0.444,0.521-0.895,0.817-1.324
			c0.29-0.436,0.558-0.878,0.891-1.285c0.312-0.42,0.635-0.832,0.992-1.221c0.17-0.197,0.348-0.39,0.545-0.572
			c0.197-0.182,0.367-0.375,0.592-0.532c0.421-0.325,0.878-0.628,1.406-0.774c0.265-0.065,0.542-0.09,0.807-0.038
			C155.109,59.007,155.35,59.15,155.505,59.355z"/>
	</g>
	<g>
		<path d="M175.975,20.137c0.42,1.149,0.74,2.337,1.031,3.53c0.324,1.182,0.527,2.395,0.779,3.595
			c0.263,1.198,0.45,2.41,0.635,3.622c0.183,1.213,0.398,2.424,0.558,3.641l0.413,3.658c0.125,1.22,0.297,2.438,0.385,3.662
			l0.564,7.34c0.098,1.223,0.121,2.447,0.186,3.676l0.165,3.678l0.162,3.677c0.046,1.235,0.015,2.483-0.005,3.716
			c-0.09,2.465-0.217,4.935-0.527,7.397c-0.107,1.232-0.355,2.455-0.537,3.688c-0.208,1.225-0.533,2.443-0.798,3.666l0.03-0.158
			l-0.605,6.631l-0.272,3.312l-0.118,1.645l-0.049,0.818c-0.006,0.229-0.003,0.336-0.033,0.518l-2.082,0.307
			c-0.051-1.422,0.05-2.711,0.09-4.068l0.345-3.979c0.31-2.639,0.692-5.264,1.093-7.887l1.5-7.799
			c0.57-2.58,1.234-5.143,1.848-7.715l0.942-3.855l1.117-3.803l2.235-7.605c0.723-2.545,1.675-5.008,2.502-7.516l2.598-7.484
			c0.232-0.647,0.402-1.193,0.688-1.928l0.798-1.838c0.54-1.215,1.095-2.422,1.665-3.622c1.143-2.4,2.346-4.778,3.658-7.115
			c1.327-2.335,2.717-4.64,4.518-6.825c0.938-1.072,1.887-2.186,3.582-3.016c0.49-0.174,0.971-0.35,1.615-0.344
			c0.295-0.031,0.615,0.039,0.93,0.119c0.328,0.068,0.605,0.195,0.857,0.363c0.575,0.31,0.865,0.702,1.225,1.09
			c-0.012-0.025,0.238,0.365,0.139,0.21l0.015,0.027l0.027,0.055l0.056,0.108l0.129,0.316l0.246,0.673
			c0.244,0.827,0.337,1.452,0.502,2.188l0.25,2.056c0.189,1.375,0.168,2.702,0.263,4.057c0.103,1.354,0.017,2.676,0.032,4.014
			c-0.02,1.332,0.016,2.674-0.08,3.994c-0.16,2.648-0.21,5.312-0.463,7.945l-0.688,7.908l-0.004,0.066l-0.023,0.104l-6.567,32.932
			l-3.292,16.457l-1.588,8.232l-0.758,4.109l-0.342,2.033l-0.166,1.01c-0.007,0.176-0.042,0.34-0.102,0.516l-3.49,0.012
			c1.52-9.016,3.265-17.945,5.165-26.861l1.47-6.678c0.48-2.229,1.03-4.44,1.545-6.66c0.51-2.223,1.07-4.431,1.628-6.643
			c0.55-2.212,1.107-4.425,1.718-6.622c0.609-2.198,1.154-4.413,1.817-6.598l1.965-6.561l2.128-6.516
			c0.734-2.164,1.542-4.307,2.31-6.459c0.747-2.16,1.692-4.258,2.53-6.389c0.812-2.14,1.875-4.192,2.822-6.282l0.73-1.562
			c0.324-0.652,0.598-1.042,0.91-1.565c0.604-0.984,1.225-1.955,1.89-2.914c0.665-0.961,1.347-1.903,2.175-2.828
			c0.442-0.46,0.822-0.926,1.662-1.377c0.136-0.059,0.275-0.108,0.42-0.15c0.181-0.043,0.408-0.061,0.618-0.048
			c0.538,0.053,1.015,0.442,1.19,0.75c0.379,0.649,0.332,0.99,0.395,1.383l-0.465-0.851c0.24,0.168,0.452,0.59,0.47,0.811
			l0.013,0.109l0.018,0.223c0.015,0.152,0.02,0.301,0.015,0.402l-0.005,0.686c0,0.467-0.04,0.885-0.055,1.33
			c-0.037,0.883-0.1,1.75-0.168,2.615c-0.117,1.737-0.277,3.465-0.432,5.195c-0.311,3.455-0.663,6.9-1.021,10.345l-0.56,5.165
			c-0.184,1.721-0.41,3.465-0.625,5.16c-0.426,3.428-0.801,6.86-1.139,10.301c-0.657,6.875-1.177,13.775-1.268,20.675
			c-0.027,3.453,0.033,6.91,0.455,10.328c0.248,1.693,0.531,3.424,1.303,4.951c0.391,0.732,0.992,1.459,1.86,1.547
			c0.854,0.045,1.66-0.418,2.325-0.953c-0.645,0.559-1.43,1.066-2.336,1.055c-0.927-0.057-1.602-0.809-2.029-1.551
			c-0.859-1.543-1.21-3.283-1.527-4.986c-0.575-3.438-0.738-6.918-0.811-10.385c-0.115-6.939,0.203-13.875,0.66-20.793
			c0.235-3.46,0.513-6.915,0.836-10.367c0.17-1.742,0.342-3.438,0.469-5.16l0.453-5.168c0.293-3.442,0.582-6.893,0.83-10.335
			c0.123-1.72,0.252-3.442,0.338-5.16c0.052-0.86,0.098-1.718,0.117-2.565c0.01-0.417,0.043-0.865,0.029-1.262V6.117
			c0-0.115-0.007-0.182-0.015-0.247l-0.005-0.103l-0.005-0.053c0.01,0.17,0.205,0.54,0.427,0.655l-0.462-0.848
			c-0.01-0.163-0.093-0.417-0.027-0.253c0.032,0.058,0.257,0.288,0.513,0.285c0.07,0.02,0.152,0.01,0.197-0.008
			c0.01,0.006,0.016,0.006,0.02-0.002c-0.164,0.088-0.582,0.47-0.896,0.842c-0.678,0.781-1.318,1.693-1.928,2.611
			c-0.613,0.922-1.2,1.875-1.768,2.837c-0.263,0.458-0.617,1.022-0.78,1.393l-0.685,1.54c-0.891,2.064-1.893,4.072-2.656,6.2
			c-0.784,2.114-1.674,4.183-2.375,6.333c-0.719,2.14-1.475,4.268-2.164,6.417l-1.988,6.485l-1.84,6.533
			c-0.643,2.17-1.172,4.375-1.765,6.557c-0.591,2.186-1.133,4.386-1.667,6.588c-0.541,2.2-1.086,4.4-1.578,6.61
			c-0.5,2.212-1.033,4.416-1.498,6.632l-1.422,6.648c-1.836,8.875-3.527,17.803-4.976,26.723l-3.489,0.016
			c0-0.523,0.027-1.059,0.082-1.578l0.165-1.064l0.343-2.111l0.737-4.152l1.545-8.27l3.197-16.5l3.343-16.465l3.395-16.453
			l-0.024,0.17l0.728-7.809c0.262-2.602,0.325-5.202,0.5-7.805c0.103-1.303,0.072-2.595,0.1-3.891
			c-0.005-1.289,0.086-2.602-0.008-3.872c-0.082-1.271-0.052-2.583-0.222-3.815l-0.21-1.861c-0.123-0.546-0.24-1.226-0.36-1.66
			c-0.03-0.086-0.052-0.17-0.075-0.261c-0.012-0.05-0.008-0.079-0.037-0.146l-0.055-0.107l-0.027-0.055l-0.014-0.027
			c-0.109-0.17,0.133,0.2,0.105,0.158c-0.103-0.073-0.197-0.24-0.232-0.215c-0.058-0.028-0.029-0.066-0.377,0.037
			c-0.69,0.317-1.604,1.17-2.36,2.08c-1.563,1.865-2.928,4.067-4.208,6.297c-1.277,2.24-2.465,4.551-3.595,6.893
			c-0.565,1.173-1.115,2.351-1.65,3.538l-0.782,1.774l-0.645,1.788l-2.656,7.393c-0.864,2.473-1.857,4.903-2.614,7.407l-2.348,7.493
			l-1.175,3.745l-1,3.793c-0.652,2.532-1.357,5.053-1.965,7.595l-1.618,7.666c-0.435,2.566-0.86,5.143-1.21,7.721l-0.404,3.877
			c-0.065,1.268-0.181,2.609-0.16,3.814l-2.083,0.305c-0.022-0.375-0.032-0.818-0.01-1.145l0.067-0.848l0.15-1.678l0.332-3.326
			l0.728-6.639l0.005-0.061l0.025-0.096c0.282-1.164,0.63-2.311,0.865-3.49c0.209-1.188,0.486-2.361,0.627-3.566
			c0.373-2.392,0.572-4.82,0.73-7.24c0.057-1.215,0.119-2.42,0.112-3.633l-0.056-3.667l-0.055-3.668
			c-0.027-1.223-0.015-2.447-0.078-3.668l-0.347-7.327c-0.053-1.223-0.188-2.438-0.278-3.655l-0.302-3.654
			c-0.112-1.219-0.274-2.431-0.413-3.646c-0.137-1.216-0.274-2.433-0.492-3.636c-0.205-1.205-0.359-2.422-0.637-3.612
			C176.62,22.495,176.35,21.302,175.975,20.137z"/>
	</g>
	<g>
		<path d="M243.162,57.323c0,0-0.17-0.155-0.518-0.405c-0.344-0.244-0.878-0.582-1.576-0.834c-0.699-0.261-1.584-0.295-2.312,0.154
			c-0.744,0.442-1.342,1.395-1.842,2.525c-0.488,1.143-0.84,2.51-1.165,3.967c-0.323,1.463-0.528,3.053-0.758,4.698
			s-0.337,3.375-0.513,5.125c-0.088,0.875-0.137,1.764-0.207,2.652l-0.048,0.672l0.005,0.502c0.016,0.391,0.053,0.777,0.107,1.143
			c0.075,0.715,0.338,1.43,0.471,1.547c0.077,0.059-0.075-0.012-0.072-0.004c-0.008,0.014,0.052-0.004,0.117,0
			c0.102-0.051,0.17-0.021,0.312-0.102c0.502-0.191,1.152-0.648,1.75-1.135c0.607-0.492,1.197-1.057,1.76-1.637
			c2.266-2.336,4.228-4.828,5.943-6.923c1.704-2.135,3.122-3.909,4.114-5.155c1-1.25,1.615-1.942,1.615-1.942
			s-0.33,0.86-0.979,2.335c-0.65,1.471-1.625,3.548-2.966,5.963c-0.675,1.205-1.415,2.51-2.295,3.838
			c-0.882,1.332-1.812,2.744-2.985,4.102c-0.572,0.686-1.192,1.373-1.902,2.041s-1.47,1.338-2.617,1.857
			c-0.562,0.254-1.28,0.49-2.178,0.436c-0.91-0.014-1.905-0.594-2.408-1.217c-1.049-1.281-1.205-2.43-1.396-3.488
			c-0.068-0.535-0.101-1.059-0.107-1.576c0-0.277-0.003-0.477,0.021-0.859l0.065-0.686c0.093-0.914,0.165-1.824,0.282-2.732
			c0.195-1.812,0.518-3.581,0.86-5.295c0.333-1.717,0.782-3.362,1.317-4.908c0.518-1.545,1.158-2.984,1.968-4.239
			c0.798-1.24,1.83-2.368,3.157-2.808c1.338-0.471,2.543,0.018,3.215,0.492c0.721,0.478,1.118,1.006,1.388,1.343
			C243.059,57.119,243.162,57.323,243.162,57.323z"/>
	</g>
	<g>
		<path d="M262.694,14.667c0,0,0.348,4.824,0.32,12.032c-0.003,1.803-0.005,3.755-0.065,5.817c-0.05,2.062-0.082,4.24-0.195,6.485
			c-0.111,2.247-0.174,4.575-0.342,6.928c-0.16,2.357-0.322,4.753-0.482,7.147c-0.221,2.391-0.438,4.78-0.65,7.135
			c-0.199,2.355-0.518,4.66-0.775,6.903c-0.254,2.237-0.574,4.396-0.885,6.441c-0.293,2.045-0.63,3.975-0.965,5.752
			c-0.652,3.561-1.355,6.508-1.98,8.541c-0.303,1.02-0.625,1.801-0.869,2.318c-0.098,0.264-0.263,0.441-0.333,0.566
			c-0.077,0.119-0.122,0.182-0.122,0.182s0.027-0.072,0.077-0.209c0.038-0.148,0.147-0.322,0.181-0.607
			c0.127-0.545,0.217-1.361,0.332-2.398c0.205-2.078,0.365-5.064,0.574-8.65c0.186-3.584,0.416-7.762,0.698-12.241
			c0.159-2.236,0.257-4.555,0.455-6.902c0.17-2.35,0.347-4.74,0.521-7.125c0.205-2.385,0.409-4.772,0.611-7.12
			c0.184-2.351,0.455-4.657,0.666-6.893c0.205-2.237,0.47-4.396,0.699-6.442c0.221-2.048,0.476-3.982,0.705-5.771
			C261.789,19.415,262.694,14.667,262.694,14.667z"/>
	</g>
	<g>
		<path d="M255.352,59.007c0,0,0.45,0.076,1.2,0.223c0.74,0.146,1.795,0.355,3.062,0.604c2.485,0.524,5.71,1.22,8.925,1.85
			c0.801,0.189,1.613,0.293,2.403,0.47c0.795,0.171,1.582,0.268,2.342,0.431c0.761,0.164,1.503,0.247,2.211,0.387
			c0.702,0.15,1.377,0.25,2.002,0.355c0.63,0.127,1.205,0.24,1.72,0.34c0.513,0.07,0.971,0.172,1.348,0.248
			c0.755,0.154,1.198,0.287,1.198,0.287s-0.405,0.192-1.141,0.457c-0.734,0.273-1.8,0.617-3.107,0.843
			c-0.655,0.128-1.372,0.25-2.13,0.292c-0.758,0.049-1.565,0.141-2.393,0.101c-0.83-0.032-1.697-0.013-2.558-0.14
			c-0.867-0.098-1.747-0.205-2.617-0.391c-0.865-0.18-1.73-0.369-2.563-0.637c-0.84-0.229-1.643-0.535-2.417-0.836
			c-1.538-0.617-2.92-1.334-4.038-2.053c-1.122-0.709-1.994-1.42-2.572-1.944C255.637,59.366,255.352,59.007,255.352,59.007z"/>
	</g>
	<g>
		<path d="M281.132,14.667c0,0,0.143,1.162,0.312,3.202c0.16,2.04,0.368,4.958,0.453,8.458c0.047,1.75,0.117,3.647,0.082,5.652
			c-0.022,2.008,0.027,4.125-0.098,6.314c-0.119,2.191-0.112,4.453-0.345,6.756c-0.228,2.305-0.343,4.635-0.702,6.992
			c-0.175,1.173-0.355,2.346-0.533,3.513c-0.199,1.133-0.399,2.263-0.595,3.386c-0.38,2.252-0.854,4.455-1.25,6.6
			c-0.83,4.277-1.665,8.258-2.423,11.667c-0.767,3.402-1.404,6.242-1.85,8.229c-0.215,0.994-0.4,1.775-0.487,2.312
			c-0.05,0.268-0.062,0.473-0.078,0.615c0.011,0.141,0.016,0.211,0.016,0.211s-0.025-0.068-0.067-0.205
			c-0.021-0.143-0.053-0.355-0.07-0.631c-0.035-0.553-0.075-1.361-0.053-2.387c0.027-2.055,0.16-4.975,0.465-8.465
			c0.28-3.49,0.718-7.548,1.29-11.878c0.303-2.16,0.562-4.403,0.938-6.663c0.181-1.135,0.363-2.279,0.543-3.43
			c0.147-1.123,0.298-2.252,0.447-3.385c0.391-2.238,0.55-4.556,0.811-6.803c0.228-2.263,0.447-4.49,0.662-6.646
			c0.425-4.33,0.82-8.372,1.16-11.835c0.357-3.468,0.69-6.365,0.95-8.393C280.962,15.828,281.132,14.667,281.132,14.667z"/>
	</g>
	<g>
		<path d="M283.478,67.167c0.157,0.688,0.435,1.344,0.747,1.963c0.322,0.61,0.668,1.206,1.112,1.69
			c0.436,0.486,0.953,0.861,1.49,1.016c0.263,0.092,0.543,0.107,0.812,0.098c0.272-0.016,0.55-0.08,0.822-0.172
			c0.271-0.107,0.543-0.229,0.803-0.391c0.266-0.141,0.516-0.355,0.775-0.529c0.497-0.396,0.987-0.827,1.435-1.324
			c0.915-0.962,1.721-2.06,2.522-3.165l-0.109,0.162c0.16-0.324,0.332-0.715,0.487-1.077c0.155-0.372,0.303-0.75,0.44-1.122
			c0.267-0.756,0.487-1.51,0.649-2.253c0.062-0.368,0.13-0.735,0.16-1.083c0.025-0.177,0.035-0.348,0.03-0.504
			c-0.005-0.158,0.02-0.336-0.016-0.469c-0.024-0.135-0.02-0.297-0.06-0.404c-0.045-0.105-0.062-0.23-0.103-0.317
			c-0.055-0.065-0.088-0.143-0.128-0.21c-0.064-0.037-0.109-0.078-0.145-0.138l-0.245-0.253c0.05,0.08-0.088-0.057-0.122-0.042
			c-0.053-0.027-0.062,0.005-0.073-0.005c-0.005,0.022-0.01,0.025-0.015,0.012c-0.015,0-0.045,0.048-0.067,0.053
			c-0.04-0.02-0.155,0.115-0.258,0.19c-0.442,0.405-1.01,1.188-1.422,2.069c-0.455,0.865-0.798,1.855-1.163,2.828
			c-0.32,1.002-0.622,2.022-0.91,3.051l-0.808,3.127l-0.688,3.182l-0.612,3.219c-0.202,1.064-0.455,2.162-0.593,3.164
			c-0.143,1.031-0.234,2.07-0.232,3.072c0,0.986,0.062,2.004,0.335,2.691c0.128,0.348,0.275,0.58,0.4,0.654
			c0.133,0.078,0.312,0.186,0.685,0.125c0.713-0.07,1.671-0.535,2.528-1.066c0.88-0.535,1.725-1.201,2.558-1.887
			c0.845-0.672,1.667-1.395,2.467-2.143c0.803-0.746,1.615-1.494,2.403-2.27l2.382-2.324c-0.612,0.924-1.183,1.889-1.832,2.789
			c-0.646,0.91-1.28,1.83-1.985,2.697c-0.692,0.883-1.41,1.748-2.18,2.584c-0.772,0.834-1.588,1.635-2.513,2.375
			c-0.945,0.715-1.902,1.486-3.378,1.822c-0.707,0.186-1.692,0.133-2.522-0.312c-0.862-0.455-1.354-1.203-1.673-1.85
			c-0.632-1.342-0.772-2.576-0.864-3.791c-0.067-1.207-0.021-2.377,0.077-3.547c0.103-1.195,0.293-2.264,0.445-3.381
			c0.157-1.107,0.33-2.209,0.537-3.312l0.657-3.307l0.79-3.306c0.312-1.098,0.671-2.192,1.038-3.285
			c0.43-1.095,0.83-2.185,1.42-3.274c0.57-1.08,1.223-2.213,2.475-3.219c0.351-0.242,0.65-0.492,1.158-0.649
			c0.239-0.077,0.455-0.175,0.715-0.212c0.268-0.028,0.542-0.043,0.81-0.041c0.53,0.043,1.08,0.19,1.503,0.44
			c0.47,0.26,0.758,0.487,1.178,0.976l-0.245-0.253c0.255,0.257,0.495,0.53,0.718,0.808c0.18,0.293,0.327,0.605,0.47,0.914
			c0.112,0.306,0.167,0.605,0.242,0.91c0.067,0.303,0.058,0.573,0.083,0.86c0.029,0.293-0.005,0.542-0.021,0.81
			c-0.013,0.264-0.04,0.523-0.087,0.764c-0.065,0.502-0.2,0.962-0.325,1.424c-0.28,0.903-0.615,1.758-0.993,2.58
			c-0.189,0.41-0.39,0.812-0.597,1.213c-0.218,0.4-0.423,0.777-0.676,1.197l-0.074,0.123l-0.035,0.043
			c-0.948,1.109-1.985,2.16-3.136,3.125c-1.149,0.945-2.444,1.861-4.092,2.199c-0.415,0.068-0.846,0.104-1.275,0.055
			c-0.43-0.053-0.862-0.154-1.24-0.357c-0.785-0.367-1.32-1.018-1.72-1.656c-0.397-0.656-0.665-1.348-0.845-2.051
			C283.604,68.593,283.478,67.88,283.478,67.167z"/>
	</g>
	<g>
		<path d="M308.163,58.105c0.229,0.931,0.404,1.865,0.552,2.815l0.216,1.425c0.062,0.476,0.159,0.961,0.194,1.434
			c0.163,1.904,0.315,3.816,0.455,5.736c0.025,0.479,0.078,0.963,0.073,1.438l0.02,1.434l0.032,2.875l-0.024,5.758l-0.051,12.33
			l-2.952-12.102c-0.35-1.434-0.508-2.734-0.615-4.109c-0.107-1.359-0.143-2.721-0.09-4.082c0.045-1.361,0.146-2.729,0.385-4.073
			c0.096-0.678,0.226-1.351,0.383-2.018c0.14-0.674,0.298-1.338,0.503-1.996c0.357-1.327,0.837-2.619,1.362-3.893
			c0.282-0.627,0.567-1.255,0.88-1.869l1.015-1.801c0.445-0.772,0.873-1.247,1.378-1.838c0.513-0.555,1.065-1.102,1.843-1.607
			c0.388-0.244,0.872-0.487,1.492-0.625c0.615-0.152,1.505-0.066,2.163,0.309c0.694,0.369,1.045,0.875,1.342,1.319
			c0.112,0.212,0.23,0.433,0.328,0.647l0.225,0.61c0.47,1.567,0.537,2.944,0.59,4.322c0.032,1.37,0.005,2.71-0.104,4.035
			l-0.08,0.993l-0.021,0.222l-0.02,0.118l-0.038,0.237l-0.072,0.475l-0.27,1.91l-0.485,3.83c-0.3,2.557-0.55,5.123-0.593,7.658
			c0.003,0.631,0.025,1.266,0.093,1.871c0.058,0.584,0.173,1.27,0.452,1.572c0.115,0.18,0.266,0.154,0.516,0.117l0.375-0.189
			l0.364-0.289c0.478-0.406,0.9-0.906,1.311-1.414c-0.298,0.58-0.601,1.164-1.01,1.705l-0.335,0.395
			c-0.136,0.121-0.285,0.234-0.438,0.348c-0.19,0.068-0.386,0.195-0.628,0.168c-0.12-0.014-0.253-0.023-0.365-0.055
			c-0.103-0.053-0.205-0.115-0.303-0.182c-0.697-0.592-0.829-1.299-1.052-1.947c-0.195-0.666-0.3-1.326-0.402-1.992
			c-0.381-2.652-0.41-5.287-0.398-7.914c0-1.318,0.062-2.628,0.131-3.938l0.117-1.966l0.035-0.492l0.02-0.253l0.008-0.125
			l0.002-0.015c0.008-0.093-0.01,0.11-0.01,0.083V65.48v-0.057v-0.957c-0.01-1.268-0.01-2.531-0.112-3.75
			c-0.095-1.211-0.265-2.448-0.598-3.355c-0.135-0.461-0.457-0.718-0.274-0.553c0.087,0.067,0.295,0.058,0.277,0.058
			c-0.016,0.015-0.128,0.045-0.283,0.152c-0.622,0.41-1.534,1.458-1.992,2.265l-0.875,1.613l-0.76,1.66
			c-0.482,1.119-0.931,2.26-1.268,3.439c-0.192,0.58-0.343,1.176-0.478,1.775c-0.155,0.595-0.277,1.197-0.373,1.803
			c-0.125,0.604-0.199,1.215-0.277,1.825c-0.1,0.609-0.149,1.225-0.202,1.84c-0.107,1.23-0.138,2.473-0.103,3.711
			c0.03,1.217,0.147,2.51,0.305,3.617l-3,0.234l0.485-5.654l0.285-2.83l0.145-1.416c0.061-0.469,0.061-0.944,0.09-1.415l0.37-5.68
			c0.05-0.479,0.035-0.945,0.053-1.42l0.04-1.42C308.163,60.025,308.195,59.063,308.163,58.105z"/>
	</g>
	<g>
		<path d="M327.229,56.896c0.377,2.162,0.64,4.324,0.864,6.492c0.125,1.085,0.195,2.168,0.283,3.255
			c0.087,1.087,0.165,2.173,0.205,3.258l0.132,3.267c0.04,1.09,0.021,2.184,0.021,3.281c-0.01,1.094-0.03,2.199-0.088,3.316
			l-0.16,1.719l-0.159,0.943c-0.018,0.086-0.022,0.146-0.051,0.252l-0.13,0.387c-0.095,0.258-0.205,0.51-0.325,0.75l-3.56,7.098
			l0.197-8.162c0.018-0.744,0.053-1.418,0.095-2.123c0.051-0.695,0.096-1.391,0.178-2.082c0.155-1.383,0.34-2.764,0.598-4.137
			c0.245-1.375,0.553-2.738,0.942-4.092c0.391-1.352,0.798-2.703,1.346-4.018c0.284-0.654,0.564-1.307,0.899-1.947
			c0.315-0.645,0.688-1.27,1.061-1.887c0.39-0.615,0.827-1.201,1.308-1.761c0.487-0.558,0.995-1.095,1.587-1.562
			c0.272-0.25,0.585-0.465,0.908-0.66c0.307-0.215,0.647-0.382,0.989-0.535c0.335-0.173,0.686-0.3,1.051-0.397
			c0.353-0.122,0.712-0.207,1.087-0.234c0.365-0.059,0.728-0.088,1.093-0.059c0.365,0.011,0.72,0.016,1.07,0.098
			c0.702,0.104,1.362,0.354,2,0.601c-0.695-0.021-1.36-0.077-2.021,0.021c-0.327,0.004-0.647,0.087-0.96,0.162
			c-0.314,0.053-0.617,0.157-0.905,0.285l-0.438,0.164l-0.407,0.229c-0.272,0.137-0.532,0.3-0.772,0.5
			c-0.247,0.178-0.482,0.365-0.692,0.595c-0.22,0.215-0.442,0.415-0.633,0.665c-0.407,0.455-0.755,0.973-1.082,1.5
			c-0.328,0.532-0.596,1.103-0.88,1.665c-0.258,0.58-0.516,1.16-0.726,1.768c-0.232,0.595-0.412,1.22-0.598,1.835
			c-0.175,0.62-0.362,1.24-0.518,1.875c-0.154,0.63-0.305,1.268-0.43,1.911c-0.26,1.279-0.473,2.578-0.67,3.879
			c-0.183,1.303-0.362,2.615-0.487,3.928l-0.19,1.973c-0.058,0.65-0.107,1.326-0.138,1.938l-3.359-1.066
			c-0.03-0.014-0.045-0.016-0.048-0.014c0,0.004,0.003,0.006,0.013,0.008c0.007-0.025,0.02-0.1,0.03-0.146l0.125-0.652l0.18-1.514
			c0.12-1.037,0.223-2.096,0.305-3.16l0.492-6.435c0.068-1.077,0.171-2.155,0.268-3.232c0.101-1.08,0.178-2.16,0.303-3.243
			C326.653,61.226,326.889,59.063,327.229,56.896z"/>
	</g>
	<g>
		<path d="M343.009,57.948c0.585,0.021,1.167,0.165,1.725,0.365c0.55,0.218,1.101,0.47,1.59,0.827
			c0.261,0.16,0.493,0.348,0.718,0.551c0.237,0.189,0.455,0.399,0.65,0.632c0.435,0.435,0.762,0.942,1.12,1.436
			c0.279,0.532,0.635,1.045,0.845,1.612c0.247,0.558,0.479,1.12,0.635,1.705c0.195,0.575,0.333,1.165,0.442,1.758
			c0.141,0.59,0.237,1.185,0.293,1.782c0.152,1.229,0.255,2.285,0.492,3.408c0.22,1.092,0.503,2.195,0.952,3.07
			c0.211,0.438,0.521,0.77,0.678,0.832c0.083,0.02,0.088,0.035,0.16,0c0.062-0.004,0.195-0.072,0.343-0.168
			c0.303-0.211,0.649-0.568,0.968-0.965c0.317-0.4,0.612-0.852,0.907-1.307l-0.07,0.123c0.348-0.764,0.695-1.621,1.003-2.461
			c0.337-0.834,0.595-1.708,0.885-2.563c0.305-0.85,0.51-1.737,0.768-2.607c0.26-0.865,0.463-1.75,0.655-2.637
			c0.183-0.886,0.444-1.754,0.585-2.653l0.473-2.675c0.182-0.885,0.25-1.793,0.362-2.69l0.305-2.692l3.48,0.188
			c-0.035,1.982-0.195,3.812-0.4,5.697c-0.25,1.855-0.457,3.721-0.8,5.559l-0.473,2.765l-0.572,2.742
			c-0.38,1.826-0.768,3.656-1.29,5.445c-0.503,1.799-0.928,3.613-1.498,5.389l-1.697,5.324c-0.562,1.826-1.24,3.488-1.862,5.236
			l-1.893,5.184l-3.78,10.371c-0.615,1.727-1.265,3.457-1.845,5.186c-0.29,0.855-0.63,1.74-0.891,2.57l-0.377,1.227l-0.093,0.311
			c-0.02,0.074-0.027,0.053-0.055,0.205l-0.038,0.156l-0.147,0.66c-0.737,3.551-1.322,7.168-1.515,10.797
			c-0.085,1.814-0.11,3.637,0.13,5.434c0.255,1.773,0.647,3.629,1.886,5.033c-1.41-1.238-2.123-3.104-2.57-4.902
			c-0.44-1.828-0.647-3.697-0.721-5.57c-0.143-3.74,0.113-7.471,0.643-11.178l0.105-0.697l0.03-0.18
			c-0.011,0.039,0.02-0.09,0.027-0.131l0.08-0.359l0.327-1.443c0.228-0.945,0.487-1.803,0.732-2.707
			c0.503-1.797,1.062-3.545,1.593-5.32c1.075-3.533,2.188-7.051,3.354-10.551l1.732-5.252c0.563-1.742,1.211-3.523,1.723-5.221
			l1.607-5.225c0.543-1.74,0.933-3.518,1.408-5.275c0.482-1.752,0.857-3.531,1.252-5.305l0.588-2.662l0.485-2.676
			c0.353-1.785,0.569-3.58,0.827-5.367c0.2-1.779,0.412-3.617,0.5-5.314l3.478,0.188l-0.405,2.819
			c-0.143,0.935-0.242,1.883-0.46,2.806l-0.582,2.782c-0.183,0.93-0.468,1.837-0.705,2.755c-0.25,0.912-0.505,1.825-0.825,2.721
			c-0.312,0.895-0.572,1.805-0.935,2.685c-0.351,0.884-0.668,1.773-1.065,2.642c-0.377,0.885-0.765,1.723-1.232,2.629l-0.045,0.076
			l-0.03,0.043c-0.362,0.508-0.752,1.006-1.192,1.492c-0.455,0.479-0.942,0.961-1.635,1.363c-0.357,0.189-0.763,0.379-1.288,0.424
			c-0.505,0.074-1.095-0.086-1.52-0.344c-0.845-0.555-1.195-1.254-1.47-1.867c-0.523-1.256-0.729-2.463-0.881-3.674
			c-0.147-1.182-0.157-2.465-0.194-3.565c-0.005-0.572-0.046-1.133-0.128-1.689c-0.053-0.568-0.13-1.125-0.263-1.67
			c-0.098-0.562-0.247-1.104-0.422-1.636c-0.141-0.552-0.41-1.04-0.615-1.569c-0.28-0.48-0.532-0.993-0.886-1.428
			c-0.157-0.238-0.342-0.45-0.537-0.652c-0.185-0.218-0.38-0.42-0.6-0.598c-0.415-0.396-0.897-0.7-1.402-0.98
			C344.129,58.263,343.584,58.048,343.009,57.948z"/>
	</g>
	<g>
		<path d="M66.545,37.375c0,0,0.163,0.038,0.371,0.101c0.212,0.062,0.469,0.152,0.709,0.26c0.479,0.216,0.791,0.503,0.793,0.788
			s-0.308,0.572-0.787,0.787c-0.243,0.107-0.5,0.197-0.715,0.26c-0.208,0.062-0.373,0.1-0.373,0.1s-0.162-0.037-0.373-0.1
			c-0.215-0.062-0.473-0.152-0.715-0.26c-0.479-0.215-0.789-0.502-0.787-0.787c0-0.285,0.312-0.572,0.793-0.788
			c0.239-0.107,0.497-0.197,0.709-0.26C66.383,37.413,66.545,37.375,66.545,37.375z"/>
	</g>
</g>
</svg>
